<?xml version="1.0" encoding="utf-8"?>
<!-- Generator: Adobe Illustrator 16.0.0, SVG Export Plug-In . SVG Version: 6.00 Build 0)  -->
<!DOCTYPE svg PUBLIC "-//W3C//DTD SVG 1.1//EN" "http://www.w3.org/Graphics/SVG/1.1/DTD/svg11.dtd">
<svg version="1.1" id="Layer_1" xmlns="http://www.w3.org/2000/svg" xmlns:xlink="http://www.w3.org/1999/xlink" x="0px" y="0px"
	 width="571.084px" height="304.217px" viewBox="0 0 571.084 304.217" enable-background="new 0 0 571.084 304.217"
	 xml:space="preserve">
<g>
	<path fill="#5E514E" d="M58.571,240.02v-5.453c8.577-0.473,12.167-1.719,11.848-4.523c-0.157-1.718-1.085-4.833-2.804-8.887
		l-4.211-9.827h-28.53l-4.365,10.296c-1.871,4.203-2.65,6.546-2.65,7.946c0,3.276,2.49,4.216,12.474,4.995v5.453H3.069v-5.453
		c10.288-0.626,11.691-1.719,17.621-14.507l27.126-58.777h12.005l27.593,61.277c4.833,10.756,5.923,11.381,16.371,12.007v5.453
		H58.571z M49.526,178.278l-11.53,26.039h22.446L49.526,178.278z"/>
	<path fill="#5E514E" d="M169.934,184.357l-24.015,57.534h-11.848l-23.85-59.241c-4.841-12.162-5.926-13.099-15.438-13.882
		c-0.464,0-0.464,0-1.561-0.156v-5.458h45.06v5.614c-9.819,0.469-12.32,1.255-12.32,4.212c0,1.872,0.625,4.208,2.969,10.449
		l15.12,40.846l16.524-42.726c1.872-4.668,2.493-6.857,2.493-8.254c0-2.966-2.332-3.901-11.533-4.527v-5.614h35.702v5.458
		C177.575,168.923,175.704,170.642,169.934,184.357z"/>
	<path fill="#5E514E" d="M231.818,240.02v-5.453c8.576-0.473,12.159-1.719,11.844-4.523c-0.145-1.718-1.085-4.833-2.8-8.887
		l-4.211-9.827h-28.533l-4.361,10.296c-1.873,4.203-2.655,6.546-2.655,7.946c0,3.276,2.493,4.216,12.478,4.995v5.453h-37.264v-5.453
		c10.291-0.626,11.691-1.719,17.621-14.507l27.125-58.777h12.005l27.593,61.277c4.833,10.756,5.922,11.381,16.371,12.007v5.453
		H231.818z M222.774,178.278l-11.538,26.039h22.454L222.774,178.278z"/>
	<path fill="#5E514E" d="M286.997,240.02v-5.615c13.256-0.153,14.035-1.089,14.035-15.745v-34.302
		c0-14.499-0.939-15.589-14.035-15.589v-5.614h45.836v5.614c-13.559,0.154-14.341,0.937-14.341,15.436v31.337v4.837v0.617
		c0,10.138,1.715,11.691,12.783,11.691c14.5,0,18.864-3.426,22.454-17.771h5.77v25.104H286.997z"/>
	<path fill="#5E514E" d="M414.156,242.518c-26.036,0-44.278-17.308-44.278-41.943c0-22.296,19.799-39.91,44.908-39.91
		c25.249,0,44.27,17.308,44.27,40.382C459.056,225.053,440.035,242.518,414.156,242.518z M413.999,168.612
		c-14.963,0-24.943,12.784-24.943,32.434c0,19.949,10.449,33.673,25.568,33.673c14.966,0,24.946-12.941,24.946-32.119
		C439.57,182.18,429.438,168.612,413.999,168.612z"/>
	<path fill="#5E514E" d="M554.148,190.598l-0.306,50.512h-6.706l-54.727-58.777v30.716v2.493v0.775
		c0,16.063,1.565,17.777,15.129,18.25v5.453h-38.2v-5.615c13.1-0.311,14.188-1.872,14.188-21.514v-39.288
		c-3.433-3.272-7.486-4.68-14.497-4.834v-5.614h27.431l48.806,52.387l-0.154-25.568c-0.159-19.796-0.782-20.889-14.97-21.204v-5.614
		h38.514v5.614C555.242,169.395,554.31,170.947,554.148,190.598z"/>
</g>
<g>
	<path fill="#948A85" d="M231.558,283.85v3.636h-9.662v2.962h8.465v3.667h-8.465v3.332h10.092v3.637h-14.153V283.85H231.558z"/>
	<path fill="#948A85" d="M243.693,293.93c-3.514-0.211-7.487-0.487-7.487-4.676c0-4.004,3.091-5.834,7.395-5.834
		c5.048,0,8.101,2.229,8.131,5.834l-4.154,0.521c-0.034-1.895-1.104-2.688-3.731-2.688c-1.773,0-3.544,0.398-3.544,1.891
		c0,1.285,1.281,1.5,3.667,1.626c4.703,0.211,7.794,0.764,7.794,5.095c0,4.165-3.513,5.814-7.855,5.814
		c-6.176,0-8.094-2.232-8.132-5.834l4.162-0.521c0.027,2.044,1.224,2.685,3.97,2.685c2.202-0.026,3.789-0.518,3.789-2.052
		C247.698,294.517,246.754,294.114,243.693,293.93z"/>
	<path fill="#948A85" d="M264.321,301.083h-4.089v-13.598h-5.354v-3.636h14.79v3.636h-5.347V301.083z"/>
	<path fill="#948A85" d="M275.011,301.083h-4.583v-4.587h4.583V301.083z"/>
	<path fill="#948A85" d="M291.424,289.817l-4.25-0.518c0.046-3.687,2.417-5.907,7.257-5.907c3.687,0,6.858,1.811,6.858,5.501
		c0,3.486-2.785,4.519-5.569,5.677c-2.739,1.128-4.457,1.427-4.503,2.784h10.271v3.683h-14.771
		c-0.088-7.276,3.011-8.186,6.923-9.521c2.531-0.858,3.506-1.377,3.506-2.623c0-1.358-1.22-1.761-2.716-1.761
		C292.353,287.133,291.47,287.808,291.424,289.817z"/>
	<path fill="#948A85" d="M319.509,292.398c0,5.95-2.01,9.003-7.258,9.003c-5.224,0-7.264-3.053-7.264-9.003
		c0-5.952,2.017-9.006,7.264-9.006C317.476,283.393,319.509,286.446,319.509,292.398z M315.347,292.398
		c0-3.851-0.878-5.312-3.096-5.312c-2.217,0-3.103,1.461-3.103,5.312c0,3.848,0.886,5.316,3.103,5.316
		C314.469,297.715,315.347,296.246,315.347,292.398z"/>
	<path fill="#948A85" d="M323.846,301.037v-3.683h4.37v-8.35c-1.225,0.771-2.878,1.381-4.618,1.722v-3.897
		c2.761-0.97,4.143-1.855,5.477-3.437h3.257v13.962h4.07v3.683H323.846z"/>
	<path fill="#948A85" d="M350.838,297.416v3.621h-4.089v-3.621h-8.117v-2.597l8.302-11.427h3.904v10.322h3.053v3.701H350.838z
		 M346.749,289.68l-2.961,4.035h2.961V289.68z"/>
</g>
<g>
	<path fill="#948A85" d="M323.459,81.317l-30.393,30.394l-5.701-5.692l41.947-41.946c3.935-14.702,4.365-29.553,4.297-37.543v-0.357
		l-0.323-0.168c-13.263-7.094-29.926-11.104-47.109-11.365l9.718,9.723l-10.033,10.022l-10.027-10.022l9.713-9.723
		c-17.177,0.261-33.842,4.271-47.109,11.365l-0.315,0.168l-0.008,0.357c-0.061,7.99,0.368,22.841,4.304,37.543l41.939,41.946
		l-5.692,5.692l-30.394-30.394c8.262,19.736,20.851,35.723,37.251,47.052l0.345,0.234l0.337-0.234
		C302.601,117.04,315.197,101.053,323.459,81.317z M300.507,28.979l10.033,10.038l-10.033,10.035l-10.042-10.035L300.507,28.979z
		 M271.226,28.979l10.034,10.038l-10.034,10.035l-10.042-10.035L271.226,28.979z M276.81,97.488
		c-0.237-0.738-0.467-1.482-0.721-2.224c-6.16-18.197-15.995-33.987-26.639-44.724l5.703-5.492c0.53,0.535,1.059,1.074,1.588,1.626
		c11.139,11.752,20.858,28.149,26.953,46.166c0.257,0.763,0.503,1.515,0.741,2.271L276.81,97.488z M285.87,86.033h-0.012h-4.015
		V38.987h4.015h0.012h4.012v47.045H285.87z M288.033,92.839c6.099-18.016,15.818-34.414,26.957-46.166
		c0.521-0.552,1.059-1.091,1.587-1.626l5.701,5.492c-10.641,10.736-20.482,26.527-26.635,44.724
		c-0.254,0.742-0.483,1.486-0.723,2.224l-7.632-2.377C287.534,94.354,287.78,93.603,288.033,92.839z"/>
	<path fill="#948A85" d="M319.033,107.272c2.271-3.145,4.333-6.44,6.137-9.788c6.781-12.639,11.315-24.579,13.462-35.514
		c3.046-13.465,3.607-26.744,3.53-35.52l-0.054-5.418l-4.792-2.575c-14.395-7.7-32.515-12.088-51.047-12.368h-0.851
		c-18.496,0.28-36.615,4.673-51.03,12.381l-4.771,2.562l-0.054,5.431c-0.069,8.771,0.484,22.047,3.532,35.504
		c2.153,10.938,6.678,22.877,13.459,35.516c1.803,3.345,3.866,6.644,6.106,9.743c5.535,8.028,12.013,15.222,19.271,21.428h4.043
		c-8.04-6.48-15.151-14.152-21.173-22.899c-2.209-3.056-4.219-6.252-5.96-9.499c-6.666-12.423-11.111-24.134-13.21-34.824
		c-2.999-13.229-3.544-26.301-3.475-34.95l0.039-3.896l3.429-1.841c14.046-7.506,31.744-11.787,49.836-12.063h0.809
		c18.093,0.276,35.786,4.557,49.825,12.062l3.438,1.843l0.038,3.893c0.068,8.653-0.476,21.725-3.476,34.954
		c-2.095,10.69-6.536,22.4-13.21,34.824c-1.741,3.241-3.744,6.443-5.953,9.497c-6.029,8.749-13.125,16.421-21.165,22.901h4.043
		C307.05,122.462,313.518,115.27,319.033,107.272z"/>
	<path fill="#948A85" d="M305.601,127.617c5.922-5.551,11.293-11.758,15.987-18.565c2.339-3.249,4.464-6.643,6.32-10.095
		c6.928-12.899,11.557-25.127,13.763-36.332c3.106-13.747,3.674-27.277,3.597-36.204l-0.068-7.259l-6.413-3.45
		c-14.828-7.921-33.469-12.447-52.517-12.737h-0.897c-18.986,0.29-37.612,4.818-52.449,12.751l-6.397,3.435l-0.069,7.275
		c-0.069,8.925,0.491,22.443,3.591,36.16c2.217,11.233,6.85,23.461,13.77,36.36c1.856,3.446,3.981,6.844,6.313,10.08
		c4.703,6.812,10.073,13.025,16.01,18.58h-164.13v1.038h165.235h0.084h1.466c-6.659-5.947-12.642-12.713-17.809-20.212
		c-2.317-3.208-4.422-6.567-6.256-9.977c-6.874-12.807-11.468-24.942-13.662-36.068c-3.084-13.641-3.648-27.078-3.575-35.949
		l0.065-6.659l5.85-3.145c14.706-7.867,33.162-12.347,51.98-12.633h0.882c18.894,0.286,37.344,4.766,52.027,12.618l5.875,3.161
		l0.063,6.643c0.077,8.884-0.491,22.317-3.575,35.965c-2.19,11.125-6.788,23.261-13.663,36.068c-1.832,3.41-3.935,6.77-6.251,9.977
		c-5.179,7.502-11.154,14.28-17.799,20.212h1.474h0.077H469.72v-1.038H305.601z"/>
</g>
</svg>
